<svg xmlns="http://www.w3.org/2000/svg" data-name="plastic cup" viewBox="0 0 32 40" x="0px" y="0px"><rect x="4.8348" y="8.5532" width="22.3303" height="4.4661" rx="1" ry="1"/><path d="M18.233,9.6697h-4.4661V5.2182c0-1.6986,.9636-3.2502,2.4862-4.0032L18.4753,.116c.5527-.2733,1.2223-.0469,1.4957,.5057l.99,2.0013c.2734,.5527,.047,1.2224-.5056,1.4958l-1.601,.7921c-.3806,.1883-.6214,.5761-.6214,1.0007v3.7581Z"/><path d="M11.5503,19.3503c2.1513,.0087,3.6908,.8003,5.0848,1.5227,1.5074,.7812,2.806,1.4529,4.6705,1.1334,1.7998-.311,3.045-.8684,3.8419-1.35l.6332-5.4042H6.2193l.6192,5.285c1.1995-.6223,2.7944-1.1698,4.7118-1.1869Z"/><path d="M21.6851,24.2067c-.4601,.0796-.8963,.115-1.3117,.115-1.9365,0-3.4248-.7709-4.7659-1.466-1.2763-.6618-2.5034-1.2833-4.037-1.2724-1.9664,.0174-3.4839,.7444-4.4483,1.3751l.8278,7.0653c.134,1.1277,1.0831,1.9763,2.2219,1.9763h11.6564c1.1389,0,2.0879-.8486,2.2219-1.9763l.7874-6.7214c-.8548,.3593-1.8933,.6868-3.1525,.9044Z"/><text x="0" y="47" fill="#000000" font-size="5px" font-weight="bold" font-family="'Helvetica Neue', Helvetica, Arial-Unicode, Arial, Sans-serif">Created by Asep Widarna</text><text x="0" y="52" fill="#000000" font-size="5px" font-weight="bold" font-family="'Helvetica Neue', Helvetica, Arial-Unicode, Arial, Sans-serif">from the Noun Project</text></svg>