<svg xmlns="http://www.w3.org/2000/svg" data-name="plastic cup" viewBox="0 0 32 40" x="0px" y="0px"><path d="M25,15H7c-1.103,0-2-.897-2-2v-2c0-1.103,.897-2,2-2H25c1.1025,0,2,.897,2,2v2c0,1.103-.8975,2-2,2ZM7,11v2H25.001l-.001-2H7Z"/><path d="M21.2217,32H10.7783c-1.5205,0-2.8013-1.1387-2.9795-2.6489l-1.792-15.2344c-.0332-.2837,.0562-.5679,.2461-.7812,.1895-.2134,.4614-.3354,.7471-.3354H25c.2852,0,.5576,.1221,.7471,.3354,.1904,.2134,.2793,.4976,.2461,.7812l-1.792,15.2339c-.1787,1.5107-1.46,2.6494-2.9795,2.6494ZM8.1245,15l1.6606,14.1172c.0591,.5029,.4863,.8828,.9932,.8828h10.4434c.5068,0,.9336-.3799,.9932-.8838l1.6602-14.1162H8.1245Z"/><path d="M18,11h-4c-.5522,0-1-.4478-1-1v-3.9868c0-1.9155,1.0664-3.6328,2.7832-4.4819l1.9902-.9844c.9863-.4878,2.1885-.084,2.6797,.9053l.8867,1.793c.2373,.4785,.2734,1.0215,.1016,1.5278-.1709,.5059-.5293,.915-1.0078,1.1519l-1.4336,.7095v3.3657c0,.5522-.4473,1-1,1Zm-3-2h2v-2.3657c0-.7666,.4268-1.4536,1.1133-1.793l1.4336-.7095-.8867-1.7925-1.9902,.9849c-1.0303,.5093-1.6699,1.5396-1.6699,2.689v2.9868Z"/><path d="M19.3125,22.1245c-1.5264,.0005-2.6812-.71-3.7227-1.3506-.9736-.5986-1.8257-1.1367-2.9087-1.1035-2.4639,.0259-4.0557,1.9683-4.0718,1.9878-.3442,.4282-.9736,.499-1.4038,.1562-.4302-.3433-.5039-.9678-.1626-1.3999,.0874-.1104,2.1787-2.7075,5.6167-2.7441,1.6812-.0195,2.897,.7354,3.978,1.3999,1.1367,.6982,2.0371,1.2495,3.3311,.9849,2.6348-.54,3.6162-1.894,3.6572-1.9512,.3145-.4478,.9365-.5625,1.3867-.2529,.4512,.3101,.5732,.9194,.2686,1.3745-.0557,.0845-1.4209,2.0732-4.9102,2.7886-.373,.0767-.7246,.1104-1.0586,.1104Z"/><text x="0" y="47" fill="#000000" font-size="5px" font-weight="bold" font-family="'Helvetica Neue', Helvetica, Arial-Unicode, Arial, Sans-serif">Created by Asep Widarna</text><text x="0" y="52" fill="#000000" font-size="5px" font-weight="bold" font-family="'Helvetica Neue', Helvetica, Arial-Unicode, Arial, Sans-serif">from the Noun Project</text></svg>